<mxfile host="app.diagrams.net" modified="2020-08-22T16:19:04.285Z" agent="5.0 (Windows NT 10.0; Win64; x64) AppleWebKit/537.36 (KHTML, like Gecko) Chrome/84.0.4147.125 Safari/537.36" etag="e1FKxNJRZ3cjhL4WucM5" version="13.6.4" type="github">
  <diagram id="pV0Y57Pkdc9Nh--8DCx2" name="Page-1">
    <mxGraphModel dx="2333" dy="713" grid="1" gridSize="10" guides="1" tooltips="1" connect="1" arrows="1" fold="1" page="1" pageScale="1" pageWidth="850" pageHeight="1100" math="0" shadow="0">
      <root>
        <mxCell id="0" />
        <mxCell id="1" parent="0" />
        <mxCell id="4nN95xsLX1FxYdbwHdF3-26" value="&lt;b&gt;&lt;font style=&quot;font-size: 22px&quot;&gt;HIT&lt;/font&gt;&lt;/b&gt;" style="rounded=0;whiteSpace=wrap;html=1;shadow=1;strokeColor=#ae4132;fillColor=#fad9d5;verticalAlign=top;" vertex="1" parent="1">
          <mxGeometry x="590" y="330" width="160" height="220" as="geometry" />
        </mxCell>
        <mxCell id="4nN95xsLX1FxYdbwHdF3-8" value="&lt;b&gt;&lt;font style=&quot;font-size: 22px&quot;&gt;PLAYER&lt;/font&gt;&lt;/b&gt;" style="rounded=0;whiteSpace=wrap;html=1;shadow=1;fillColor=#dae8fc;strokeColor=#6c8ebf;verticalAlign=top;" vertex="1" parent="1">
          <mxGeometry x="160" y="20" width="320" height="120" as="geometry" />
        </mxCell>
        <mxCell id="4nN95xsLX1FxYdbwHdF3-30" value="" style="edgeStyle=orthogonalEdgeStyle;rounded=0;orthogonalLoop=1;jettySize=auto;html=1;" edge="1" parent="1" source="4nN95xsLX1FxYdbwHdF3-1">
          <mxGeometry relative="1" as="geometry">
            <mxPoint x="160" y="100" as="targetPoint" />
          </mxGeometry>
        </mxCell>
        <mxCell id="4nN95xsLX1FxYdbwHdF3-1" value="&lt;b&gt;&lt;font style=&quot;font-size: 22px&quot;&gt;KBD&lt;/font&gt;&lt;/b&gt;" style="rounded=1;whiteSpace=wrap;html=1;" vertex="1" parent="1">
          <mxGeometry x="-30" y="70" width="120" height="60" as="geometry" />
        </mxCell>
        <mxCell id="4nN95xsLX1FxYdbwHdF3-2" value="logic" style="rounded=1;whiteSpace=wrap;html=1;" vertex="1" parent="1">
          <mxGeometry x="170" y="70" width="120" height="60" as="geometry" />
        </mxCell>
        <mxCell id="4nN95xsLX1FxYdbwHdF3-3" value="draw" style="rounded=1;whiteSpace=wrap;html=1;" vertex="1" parent="1">
          <mxGeometry x="350" y="70" width="120" height="60" as="geometry" />
        </mxCell>
        <mxCell id="4nN95xsLX1FxYdbwHdF3-33" style="edgeStyle=orthogonalEdgeStyle;rounded=0;orthogonalLoop=1;jettySize=auto;html=1;entryX=0.358;entryY=0.996;entryDx=0;entryDy=0;entryPerimeter=0;fillColor=#a0522d;strokeColor=#6D1F00;" edge="1" parent="1" source="4nN95xsLX1FxYdbwHdF3-9" target="4nN95xsLX1FxYdbwHdF3-22">
          <mxGeometry relative="1" as="geometry">
            <mxPoint x="630" y="140" as="targetPoint" />
            <Array as="points">
              <mxPoint x="510" y="230" />
              <mxPoint x="510" y="139" />
            </Array>
          </mxGeometry>
        </mxCell>
        <mxCell id="4nN95xsLX1FxYdbwHdF3-48" style="edgeStyle=orthogonalEdgeStyle;rounded=0;orthogonalLoop=1;jettySize=auto;html=1;entryX=0.003;entryY=0.162;entryDx=0;entryDy=0;entryPerimeter=0;fillColor=#a0522d;strokeColor=#6D1F00;" edge="1" parent="1" source="4nN95xsLX1FxYdbwHdF3-9" target="4nN95xsLX1FxYdbwHdF3-26">
          <mxGeometry relative="1" as="geometry">
            <Array as="points">
              <mxPoint x="510" y="230" />
              <mxPoint x="510" y="366" />
            </Array>
          </mxGeometry>
        </mxCell>
        <mxCell id="4nN95xsLX1FxYdbwHdF3-9" value="&lt;b&gt;&lt;font style=&quot;font-size: 22px&quot;&gt;AMMO&lt;/font&gt;&lt;/b&gt;" style="rounded=0;whiteSpace=wrap;html=1;shadow=1;verticalAlign=top;fillColor=#a0522d;strokeColor=#6D1F00;fontColor=#ffffff;" vertex="1" parent="1">
          <mxGeometry x="160" y="170" width="320" height="120" as="geometry" />
        </mxCell>
        <mxCell id="4nN95xsLX1FxYdbwHdF3-10" value="logic" style="rounded=1;whiteSpace=wrap;html=1;" vertex="1" parent="1">
          <mxGeometry x="170" y="220" width="120" height="60" as="geometry" />
        </mxCell>
        <mxCell id="4nN95xsLX1FxYdbwHdF3-11" value="draw" style="rounded=1;whiteSpace=wrap;html=1;" vertex="1" parent="1">
          <mxGeometry x="350" y="220" width="120" height="60" as="geometry" />
        </mxCell>
        <mxCell id="4nN95xsLX1FxYdbwHdF3-34" style="edgeStyle=orthogonalEdgeStyle;rounded=0;orthogonalLoop=1;jettySize=auto;html=1;entryX=0.5;entryY=1;entryDx=0;entryDy=0;fillColor=#e51400;strokeColor=#B20000;" edge="1" parent="1" source="4nN95xsLX1FxYdbwHdF3-12" target="4nN95xsLX1FxYdbwHdF3-22">
          <mxGeometry relative="1" as="geometry">
            <Array as="points">
              <mxPoint x="530" y="380" />
              <mxPoint x="530" y="165" />
            </Array>
          </mxGeometry>
        </mxCell>
        <mxCell id="4nN95xsLX1FxYdbwHdF3-12" value="&lt;b&gt;&lt;font style=&quot;font-size: 22px&quot;&gt;ENEMY&lt;/font&gt;&lt;/b&gt;" style="rounded=0;whiteSpace=wrap;html=1;shadow=1;fillColor=#e51400;strokeColor=#B20000;verticalAlign=top;fontColor=#ffffff;" vertex="1" parent="1">
          <mxGeometry x="160" y="320" width="320" height="120" as="geometry" />
        </mxCell>
        <mxCell id="4nN95xsLX1FxYdbwHdF3-13" value="logic" style="rounded=1;whiteSpace=wrap;html=1;" vertex="1" parent="1">
          <mxGeometry x="170" y="370" width="120" height="60" as="geometry" />
        </mxCell>
        <mxCell id="4nN95xsLX1FxYdbwHdF3-14" value="draw" style="rounded=1;whiteSpace=wrap;html=1;" vertex="1" parent="1">
          <mxGeometry x="350" y="370" width="120" height="60" as="geometry" />
        </mxCell>
        <mxCell id="4nN95xsLX1FxYdbwHdF3-40" style="edgeStyle=orthogonalEdgeStyle;rounded=0;orthogonalLoop=1;jettySize=auto;html=1;entryX=0.616;entryY=1.011;entryDx=0;entryDy=0;entryPerimeter=0;fillColor=#60a917;strokeColor=#2D7600;" edge="1" parent="1" source="4nN95xsLX1FxYdbwHdF3-15" target="4nN95xsLX1FxYdbwHdF3-22">
          <mxGeometry relative="1" as="geometry" />
        </mxCell>
        <mxCell id="4nN95xsLX1FxYdbwHdF3-54" style="edgeStyle=orthogonalEdgeStyle;rounded=0;orthogonalLoop=1;jettySize=auto;html=1;entryX=0;entryY=0.25;entryDx=0;entryDy=0;fillColor=#60a917;strokeColor=#2D7600;" edge="1" parent="1" source="4nN95xsLX1FxYdbwHdF3-15" target="4nN95xsLX1FxYdbwHdF3-26">
          <mxGeometry relative="1" as="geometry" />
        </mxCell>
        <mxCell id="4nN95xsLX1FxYdbwHdF3-15" value="&lt;b&gt;&lt;font style=&quot;font-size: 22px&quot;&gt;TREE&lt;/font&gt;&lt;/b&gt;" style="rounded=0;whiteSpace=wrap;html=1;shadow=1;fillColor=#60a917;strokeColor=#2D7600;verticalAlign=top;fontColor=#ffffff;" vertex="1" parent="1">
          <mxGeometry x="160" y="470" width="320" height="120" as="geometry" />
        </mxCell>
        <mxCell id="4nN95xsLX1FxYdbwHdF3-16" value="logic" style="rounded=1;whiteSpace=wrap;html=1;" vertex="1" parent="1">
          <mxGeometry x="170" y="520" width="120" height="60" as="geometry" />
        </mxCell>
        <mxCell id="4nN95xsLX1FxYdbwHdF3-17" value="draw" style="rounded=1;whiteSpace=wrap;html=1;" vertex="1" parent="1">
          <mxGeometry x="350" y="520" width="120" height="60" as="geometry" />
        </mxCell>
        <mxCell id="4nN95xsLX1FxYdbwHdF3-36" style="edgeStyle=orthogonalEdgeStyle;rounded=0;orthogonalLoop=1;jettySize=auto;html=1;entryX=0.75;entryY=1;entryDx=0;entryDy=0;fillColor=#f0a30a;strokeColor=#BD7000;" edge="1" parent="1" source="4nN95xsLX1FxYdbwHdF3-19" target="4nN95xsLX1FxYdbwHdF3-22">
          <mxGeometry relative="1" as="geometry">
            <Array as="points">
              <mxPoint x="570" y="680" />
              <mxPoint x="570" y="210" />
            </Array>
          </mxGeometry>
        </mxCell>
        <mxCell id="4nN95xsLX1FxYdbwHdF3-19" value="&lt;b&gt;&lt;font style=&quot;font-size: 22px&quot;&gt;BACKGROUNG / HORIZON&lt;/font&gt;&lt;/b&gt;" style="rounded=0;whiteSpace=wrap;html=1;shadow=1;fillColor=#f0a30a;strokeColor=#BD7000;verticalAlign=top;fontColor=#ffffff;" vertex="1" parent="1">
          <mxGeometry x="160" y="620" width="320" height="120" as="geometry" />
        </mxCell>
        <mxCell id="4nN95xsLX1FxYdbwHdF3-20" value="logic" style="rounded=1;whiteSpace=wrap;html=1;" vertex="1" parent="1">
          <mxGeometry x="170" y="670" width="120" height="60" as="geometry" />
        </mxCell>
        <mxCell id="4nN95xsLX1FxYdbwHdF3-21" value="draw" style="rounded=1;whiteSpace=wrap;html=1;" vertex="1" parent="1">
          <mxGeometry x="350" y="670" width="120" height="60" as="geometry" />
        </mxCell>
        <mxCell id="4nN95xsLX1FxYdbwHdF3-32" value="" style="edgeStyle=orthogonalEdgeStyle;rounded=0;orthogonalLoop=1;jettySize=auto;html=1;exitX=1;exitY=0.5;exitDx=0;exitDy=0;entryX=0.25;entryY=1;entryDx=0;entryDy=0;fillColor=#b1ddf0;strokeColor=#10739e;" edge="1" parent="1" source="4nN95xsLX1FxYdbwHdF3-8" target="4nN95xsLX1FxYdbwHdF3-22">
          <mxGeometry relative="1" as="geometry">
            <mxPoint x="580" y="120" as="targetPoint" />
            <Array as="points">
              <mxPoint x="530" y="80" />
              <mxPoint x="530" y="120" />
            </Array>
          </mxGeometry>
        </mxCell>
        <mxCell id="4nN95xsLX1FxYdbwHdF3-39" style="edgeStyle=orthogonalEdgeStyle;rounded=0;orthogonalLoop=1;jettySize=auto;html=1;entryX=0;entryY=0.5;entryDx=0;entryDy=0;" edge="1" parent="1" source="4nN95xsLX1FxYdbwHdF3-22" target="4nN95xsLX1FxYdbwHdF3-23">
          <mxGeometry relative="1" as="geometry" />
        </mxCell>
        <mxCell id="4nN95xsLX1FxYdbwHdF3-22" value="&lt;b&gt;&lt;font style=&quot;font-size: 22px&quot;&gt;MUX&lt;/font&gt;&lt;/b&gt;" style="shape=trapezoid;perimeter=trapezoidPerimeter;whiteSpace=wrap;html=1;fixedSize=1;shadow=1;strokeColor=#000000;fillColor=#ffffff;gradientColor=none;rotation=90;" vertex="1" parent="1">
          <mxGeometry x="590" y="120" width="180" height="90" as="geometry" />
        </mxCell>
        <mxCell id="4nN95xsLX1FxYdbwHdF3-23" value="&lt;b&gt;&lt;font style=&quot;font-size: 22px&quot;&gt;VGA&lt;/font&gt;&lt;/b&gt;" style="rounded=1;whiteSpace=wrap;html=1;shadow=1;strokeColor=#000000;fillColor=#ffffff;gradientColor=none;" vertex="1" parent="1">
          <mxGeometry x="850" y="135" width="120" height="60" as="geometry" />
        </mxCell>
        <mxCell id="4nN95xsLX1FxYdbwHdF3-37" style="edgeStyle=orthogonalEdgeStyle;rounded=0;orthogonalLoop=1;jettySize=auto;html=1;entryX=1;entryY=0.75;entryDx=0;entryDy=0;fillColor=#fad9d5;strokeColor=#ae4132;" edge="1" parent="1" source="4nN95xsLX1FxYdbwHdF3-24" target="4nN95xsLX1FxYdbwHdF3-12">
          <mxGeometry relative="1" as="geometry" />
        </mxCell>
        <mxCell id="4nN95xsLX1FxYdbwHdF3-24" value="ENEMY" style="rounded=1;whiteSpace=wrap;html=1;shadow=1;strokeColor=#000000;fillColor=#ffffff;gradientColor=none;" vertex="1" parent="1">
          <mxGeometry x="610" y="380" width="120" height="60" as="geometry" />
        </mxCell>
        <mxCell id="4nN95xsLX1FxYdbwHdF3-43" style="edgeStyle=orthogonalEdgeStyle;rounded=0;orthogonalLoop=1;jettySize=auto;html=1;entryX=1;entryY=0.75;entryDx=0;entryDy=0;fillColor=#fad9d5;strokeColor=#ae4132;" edge="1" parent="1" source="4nN95xsLX1FxYdbwHdF3-25" target="4nN95xsLX1FxYdbwHdF3-8">
          <mxGeometry relative="1" as="geometry">
            <Array as="points">
              <mxPoint x="500" y="500" />
              <mxPoint x="500" y="110" />
            </Array>
          </mxGeometry>
        </mxCell>
        <mxCell id="4nN95xsLX1FxYdbwHdF3-25" value="TREE" style="rounded=1;whiteSpace=wrap;html=1;shadow=1;strokeColor=#000000;fillColor=#ffffff;gradientColor=none;" vertex="1" parent="1">
          <mxGeometry x="610" y="470" width="120" height="60" as="geometry" />
        </mxCell>
        <mxCell id="4nN95xsLX1FxYdbwHdF3-27" value="&lt;b&gt;&lt;font style=&quot;font-size: 22px&quot;&gt;SOUND&lt;/font&gt;&lt;/b&gt;" style="rounded=1;whiteSpace=wrap;html=1;shadow=1;strokeColor=#000000;fillColor=#ffffff;gradientColor=none;" vertex="1" parent="1">
          <mxGeometry x="620" y="620" width="120" height="60" as="geometry" />
        </mxCell>
        <mxCell id="4nN95xsLX1FxYdbwHdF3-28" value="&lt;b&gt;&lt;font style=&quot;font-size: 18px&quot;&gt;GAME CONTROLLER&lt;/font&gt;&lt;/b&gt;" style="rounded=1;whiteSpace=wrap;html=1;shadow=1;strokeColor=#000000;fillColor=#ffffff;gradientColor=none;" vertex="1" parent="1">
          <mxGeometry x="845" y="360" width="130" height="160" as="geometry" />
        </mxCell>
      </root>
    </mxGraphModel>
  </diagram>
</mxfile>
